<svg width="1080" height="1080" viewBox="0 0 1080 1080" fill="none" xmlns="http://www.w3.org/2000/svg">
<path d="M462.29 360.78C433.29 304.28 360.67 277.94 359.53 277.54H359.52C350.91 276.47 342.31 275.4 333.7 274.33C309.73 273.33 285.76 272 261.78 271.41C251.62 271.16 245.34 271.19 241.93 272.82L242.2 272.64C241.92 272.75 238.37 274.14 232.71 276.55C230.97 277.28 229.03 278.12 226.92 279.04C223.57 280.51 219.8 282.2 215.75 284.08C198.26 292.2 175.55 303.86 158.77 316.43C156.2 318.35 153.77 320.3 151.52 322.25C148.83 324.59 146.4 326.94 144.3 329.3C140.43 333.6 137.65 337.91 136.37 342.12C136.56 329.45 141.38 317.5 147.07 305.98C154.69 290.56 164.06 276 172.67 261.07C192.29 228.73 208.35 193.25 246.68 177.39C246.73 177.37 246.79 177.35 246.84 177.33C257.27 173.36 268.34 171.37 279.5 171.47C281.49 171.48 283.49 171.5 285.48 171.52L319.85 171.8C328.85 171.87 337.8 173.3 346.38 176.04C351.4 177.65 356.39 179.33 361.24 181.34C365.42 183.07 369.11 185.95 372.89 188.66C374.98 190.16 377.02 191.72 378.99 193.38C382.05 195.98 385.11 198.57 388.18 201.17C394.5 206.52 400.05 212.72 404.66 219.61C410.86 228.86 417.22 238.05 421.47 248.13C435.28 280.82 447.54 314.17 459.91 347.45C461.64 352.09 462.34 356.52 462.29 360.78Z" fill="url(#paint0_linear_2004_320)"/>
<path d="M976.8 738.42C976.8 738.42 934.51 906.43 684.71 908.51C663.93 908.24 598.63 904.19 596.65 903.56C629.71 904.3 680.38 903.84 709.03 898.54C715.09 897.86 721.15 896.65 727.19 895.06C729.16 894.54 731.13 893.99 733.1 893.39C891.8 854.73 975.51 740.21 976.8 738.42Z" fill="url(#paint1_linear_2004_320)"/>
<path d="M294.59 389.32C288.34 399.08 282.08 408.85 275.83 418.61C262.73 442.67 249.64 466.73 236.54 490.78C229.27 504.12 221.98 517.45 214.69 530.78C212.54 535.05 210.38 539.32 208.22 543.6C200.63 524.85 193.17 506.07 185.42 487.39C181.63 478.28 177.31 469.39 173.24 460.39C161.69 426.18 150.15 391.96 138.61 357.75C136.96 352.42 136.3 347.23 136.36 342.16V342.12C137.65 337.91 140.43 333.6 144.3 329.3C146.4 326.94 148.83 324.59 151.52 322.25C153.77 320.3 156.2 318.35 158.77 316.43C175.55 303.86 198.26 292.2 215.75 284.08C219.8 282.2 223.57 280.51 226.92 279.04C229.03 278.12 230.97 277.28 232.71 276.55C238.37 274.14 241.92 272.75 242.2 272.64L241.93 272.82C241.31 273.11 240.79 273.46 240.36 273.86C239.32 274.83 239.99 280.05 241.41 286.8C245.99 308.62 254.6 329.4 266.61 348.19C278.08 366.14 292.23 387.88 294.6 389.32H294.59Z" fill="url(#paint2_linear_2004_320)"/>
<path d="M136.37 342.12C136.36 342.29 136.36 342.47 136.36 342.64L136.18 342.76C136.24 342.55 136.3 342.33 136.37 342.12Z" fill="#F5A9A7"/>
<path d="M241.93 272.82L240.36 273.86C240.79 273.46 241.31 273.11 241.93 272.82Z" fill="#F5A9A7"/>
<path d="M462.29 360.78C462.3 360.85 462.3 360.91 462.29 360.98C462.07 376.06 452.53 389.09 446.14 402.61C442.34 410.63 436.59 417.73 431.73 425.24C426.91 432.61 422.1 439.97 417.3 447.33L417.36 447.72C402.5 471.44 388.11 495.46 372.6 518.75C369.25 523.77 366.38 528.65 364.79 533.52C364.87 532.54 364.98 531.53 365.12 530.5C345.77 565.57 319.42 613.73 300.93 647.97C300.59 648.59 300.25 649.21 299.92 649.83C293.2 662.26 287.7 675.34 281.64 688.12C281.64 689.12 270.31 702.76 269.35 704.72C243.43 757.65 218.07 810.86 192.55 864C190.77 869.29 188.98 874.59 186.21 882.77C171.47 861.99 157.65 842.51 143.83 823.04C131.75 806.06 118.53 789.74 108.13 771.79C103.76 764.26 101.36 751.27 104.91 744.17C138.5 676.89 173.57 610.35 208.22 543.6C210.38 539.32 212.54 535.05 214.69 530.78C221.98 517.45 229.27 504.12 236.54 490.78C249.64 466.73 262.73 442.67 275.83 418.61C282.08 408.85 288.34 399.08 294.59 389.32C294.67 388.4 358.69 282.38 359.52 277.53H359.53C360.67 277.94 433.29 304.28 462.29 360.78Z" fill="url(#paint3_linear_2004_320)"/>
<path d="M462.48 361.14L462.29 360.98C462.3 360.91 462.3 360.85 462.29 360.78C462.36 360.9 462.42 361.02 462.48 361.14Z" fill="#F5A9A7"/>
<path d="M700.95 899.73C553.77 919.6 453.83 879.05 388.27 829.06C307.97 767.83 279.42 691.52 279.42 691.52L282.92 685.41C288.48 673.5 293.67 661.38 299.92 649.83C300.25 649.21 300.59 648.59 300.93 647.97C319.42 613.73 345.77 565.57 365.12 530.5C365.12 530.5 374.75 566.57 399.27 617.21C410.69 638.4 421.66 659.9 434.15 680.39C434.16 680.39 434.16 680.41 434.16 680.41C437.06 685.17 440.04 689.87 443.13 694.51C444.85 697.09 446.61 699.65 448.4 702.18C448.44 702.26 448.5 702.34 448.57 702.43C464.44 724.97 482.65 745.96 500 767.52C500.92 768.66 501.87 769.77 502.86 770.85C525.53 795.44 551.53 819.26 581.24 840.81C582.53 841.75 583.87 842.64 585.24 843.49C602.79 854.38 620.35 865.29 637.91 876.19C639.28 877.04 640.67 877.84 642.09 878.58C652.41 883.99 663.08 889.11 674.12 893.9C682.62 897.58 691.71 900.01 700.95 899.73Z" fill="url(#paint4_linear_2004_320)"/>
<defs>
<linearGradient id="paint0_linear_2004_320" x1="112.06" y1="221.81" x2="425.25" y2="312.02" gradientUnits="userSpaceOnUse">
<stop offset="0.17" stop-color="#E40F10"/>
<stop offset="0.23" stop-color="#E51213"/>
<stop offset="0.29" stop-color="#EA1E1E"/>
<stop offset="0.36" stop-color="#F23230"/>
<stop offset="0.42" stop-color="#FF504B"/>
<stop offset="0.44" stop-color="#FA4541"/>
<stop offset="0.48" stop-color="#F02D2B"/>
<stop offset="0.52" stop-color="#E91D1C"/>
<stop offset="0.57" stop-color="#E51313"/>
<stop offset="0.64" stop-color="#E41011"/>
</linearGradient>
<linearGradient id="paint1_linear_2004_320" x1="596.65" y1="823.46" x2="976.8" y2="823.46" gradientUnits="userSpaceOnUse">
<stop stop-color="#E40F10"/>
<stop offset="0.65" stop-color="#D40C08"/>
<stop offset="1" stop-color="#CA0A04"/>
</linearGradient>
<linearGradient id="paint2_linear_2004_320" x1="176.76" y1="360.1" x2="289.15" y2="471.48" gradientUnits="userSpaceOnUse">
<stop stop-color="#E40F10"/>
<stop offset="0.34" stop-color="#E41112"/>
<stop offset="0.55" stop-color="#E71A1A"/>
<stop offset="0.72" stop-color="#EB2829"/>
<stop offset="0.88" stop-color="#F23D3D"/>
<stop offset="1" stop-color="#F95353"/>
</linearGradient>
<linearGradient id="paint3_linear_2004_320" x1="117.02" y1="837.13" x2="406.63" y2="359.59" gradientUnits="userSpaceOnUse">
<stop stop-color="#E40F10"/>
<stop offset="0.08" stop-color="#E81E1E"/>
<stop offset="0.24" stop-color="#F34645"/>
<stop offset="0.26" stop-color="#F54C4B"/>
<stop offset="0.27" stop-color="#F44B4A"/>
<stop offset="0.4" stop-color="#ED3131"/>
<stop offset="0.54" stop-color="#E81E1F"/>
<stop offset="0.69" stop-color="#E51314"/>
<stop offset="0.85" stop-color="#E41011"/>
<stop offset="0.92" stop-color="#DB0E0C"/>
<stop offset="1" stop-color="#CA0A04"/>
</linearGradient>
<linearGradient id="paint4_linear_2004_320" x1="263.92" y1="595.3" x2="601.28" y2="848.04" gradientUnits="userSpaceOnUse">
<stop offset="0.22" stop-color="#E40F10"/>
<stop offset="0.32" stop-color="#EC2F2F"/>
<stop offset="0.42" stop-color="#F54C4B"/>
<stop offset="0.58" stop-color="#EC2F2F"/>
<stop offset="0.75" stop-color="#E61819"/>
<stop offset="0.85" stop-color="#E41011"/>
</linearGradient>
</defs>
</svg>
