<svg width="1080" height="1080" viewBox="0 0 1080 1080" fill="none" xmlns="http://www.w3.org/2000/svg">
<path d="M52.6504 550.46C55.8404 535.15 57.4104 519.78 62.3904 505.6C70.1404 483.54 85.8304 473.75 108.1 473.75C130.12 473.75 146.06 483.82 153.9 505.69C164.89 536.32 164.98 567.62 153.35 598.18C145.3 619.33 129.06 629.2 106.6 628.75C85.1704 628.32 68.8104 617.5 62.0704 596.36C57.4004 581.68 55.7304 566.05 52.6504 550.47V550.46ZM139.6 552.08C137.5 539.53 136.28 526.72 133.05 514.43C129.44 500.7 120.26 493.83 108.6 493.5C97.4504 493.19 88.5204 499.56 83.9504 512.99C75.3304 538.33 75.4604 564.06 83.7304 589.43C88.0704 602.75 97.0904 609.17 108.28 609.04C120.01 608.9 129.36 601.95 133.01 588.38C136.14 576.71 137.42 564.54 139.6 552.07V552.08Z" fill="#595959"/>
<path d="M1027.14 625.56C1012.47 627.12 1002.98 621.147 998.69 607.64C996.99 602.28 995.3 596.91 993.55 591.57C988.25 575.45 988.23 575.33 970.88 575.5C961.88 575.59 950.75 573.14 944.51 577.47C938.72 581.49 938.15 593.01 935.31 601.24C934.39 603.9 933.57 606.59 932.69 609.27C928.517 622.03 919.054 627.36 904.3 625.26C911.92 602.07 919.44 578.98 927.11 555.93C935.1 531.91 943.48 508.02 951.14 483.9C953.13 477.64 956.11 474.63 962.4 476.17C968.19 477.6 976.59 471.63 979.64 480.65C995.75 528.27 1011.48 576.03 1027.31 623.75C1027.49 624.28 1027.22 624.96 1027.16 625.57L1027.14 625.56ZM950.76 554.63H981.55C976.34 538.74 971.53 524.09 965.96 507.12C960.46 524.3 955.77 538.99 950.76 554.63Z" fill="#595959"/>
<path d="M709.78 595.11C721.24 559.78 732.08 526.56 742.79 493.3C749.08 473.77 749.11 473.67 771.27 477.19C767.97 487.33 764.77 497.35 761.46 507.34C749.38 543.78 736.67 580.03 725.52 616.76C721.96 628.47 714.39 625.38 706.82 626.36C698.7 627.41 696.23 623.44 694 616.59C679.76 572.94 665.08 529.44 650.57 485.88C649.61 483 648.88 480.05 647.74 476.09C653.14 476.09 657.49 476.46 661.75 476.01C668.42 475.31 671.58 477.59 673.69 484.39C684.44 518.99 695.84 553.39 707.03 587.85C707.6 589.62 708.34 591.33 709.78 595.12V595.11Z" fill="#595959"/>
<path d="M285.47 483.83C282.28 491.23 279.98 496.57 278.2 500.69C266.82 498.15 256.67 494.84 246.29 493.8C228.33 492 215.56 500.42 210.62 517.56C203.9 540.86 203.02 564.58 212.04 587.53C218.67 604.39 232.78 611.9 250.53 608.42C260.51 606.46 270.1 602.52 280.29 599.34C280.13 599.19 280.76 599.51 280.99 600.02C288.54 616.62 288.23 618.47 270.63 624.23C232.26 636.78 189.99 626.84 183.76 569.02C182.24 554.88 182.66 540.06 185.11 526.05C192.59 483.24 221.22 467.2 263.6 475.96C270.74 477.44 277.48 480.9 285.48 483.84L285.47 483.83Z" fill="#595959"/>
<path d="M872.91 476.75V496.05H849.43V606.06H872.69V625.69H801.61V606.52H825.85V496.4H801.55V476.75H872.91Z" fill="#595959"/>
<path d="M353.27 494.97H308.05V476.76H420.62V494.61H375.79V625.79H353.28V494.97H353.27Z" fill="#595959"/>
<path d="M640.99 431.01C623.35 396.65 579.19 380.63 578.5 380.39C573.26 379.74 568.03 379.09 562.8 378.44C548.22 377.83 533.65 377.02 519.06 376.66C512.88 376.51 509.06 376.53 506.99 377.52L507.15 377.41C506.98 377.48 504.82 378.32 501.38 379.79C500.32 380.23 499.14 380.74 497.86 381.3C495.82 382.19 493.53 383.22 491.07 384.36C480.43 389.3 466.62 396.39 456.42 404.03C454.86 405.2 453.38 406.38 452.01 407.57C450.37 408.99 448.9 410.42 447.62 411.86C445.27 414.48 443.58 417.1 442.8 419.66C442.92 411.96 445.85 404.69 449.31 397.68C453.94 388.3 459.64 379.45 464.88 370.37C476.81 350.7 486.58 329.13 509.89 319.48C509.92 319.47 509.96 319.46 509.99 319.44C516.33 317.03 523.06 315.82 529.85 315.88C531.06 315.88 532.28 315.9 533.49 315.91L554.39 316.08C559.86 316.12 565.31 316.99 570.52 318.66C573.57 319.64 576.61 320.66 579.56 321.88C582.1 322.93 584.35 324.68 586.64 326.33C587.91 327.24 589.15 328.19 590.35 329.2C592.21 330.78 594.07 332.36 595.94 333.94C599.78 337.19 603.16 340.96 605.96 345.15C609.73 350.78 613.6 356.36 616.18 362.49C624.58 382.37 632.03 402.65 639.56 422.89C640.61 425.71 641.04 428.41 641.01 431L640.99 431.01Z" fill="url(#paint0_linear_2004_331)"/>
<path d="M953.88 660.66C953.88 660.66 928.16 762.83 776.25 764.1C763.61 763.94 723.9 761.47 722.7 761.09C742.8 761.54 773.62 761.26 791.04 758.04C794.73 757.63 798.41 756.89 802.08 755.92C803.28 755.6 804.48 755.27 805.67 754.9C902.18 731.39 953.09 661.75 953.87 660.66H953.88Z" fill="url(#paint1_linear_2004_331)"/>
<path d="M539.01 448.37C535.21 454.31 531.4 460.25 527.6 466.18C519.63 480.81 511.67 495.44 503.71 510.07C499.29 518.18 494.86 526.29 490.42 534.4C489.11 537 487.8 539.59 486.49 542.2C481.87 530.8 477.34 519.38 472.62 508.02C470.32 502.48 467.69 497.07 465.21 491.6C458.19 470.8 451.17 449.99 444.15 429.18C443.15 425.94 442.74 422.78 442.78 419.7V419.68C443.56 417.12 445.25 414.5 447.61 411.88C448.89 410.44 450.36 409.02 452 407.59C453.37 406.4 454.85 405.22 456.41 404.05C466.61 396.41 480.43 389.32 491.06 384.38C493.52 383.24 495.82 382.21 497.85 381.32C499.13 380.76 500.31 380.25 501.37 379.81C504.81 378.34 506.97 377.5 507.14 377.43L506.98 377.54C506.6 377.72 506.29 377.93 506.03 378.17C505.4 378.76 505.81 381.93 506.67 386.04C509.45 399.31 514.69 411.95 521.99 423.37C528.96 434.28 537.57 447.51 539.01 448.38V448.37Z" fill="url(#paint2_linear_2004_331)"/>
<path d="M442.79 419.66C442.79 419.76 442.79 419.87 442.79 419.98L442.68 420.05C442.72 419.92 442.75 419.79 442.8 419.66H442.79Z" fill="#F5A9A7"/>
<path d="M506.98 377.52L506.03 378.15C506.29 377.91 506.61 377.69 506.98 377.52Z" fill="#F5A9A7"/>
<path d="M640.99 431.01C640.99 431.01 640.99 431.09 640.99 431.13C640.86 440.3 635.05 448.22 631.17 456.45C628.86 461.33 625.36 465.64 622.41 470.21C619.48 474.69 616.55 479.17 613.63 483.64L613.67 483.88C604.63 498.3 595.88 512.91 586.45 527.08C584.41 530.13 582.67 533.1 581.7 536.06C581.75 535.46 581.82 534.85 581.9 534.22C570.13 555.55 554.11 584.83 542.86 605.66C542.65 606.04 542.45 606.41 542.25 606.79C538.16 614.35 534.82 622.3 531.13 630.08C531.13 630.69 524.24 638.98 523.66 640.17C507.9 672.36 492.48 704.72 476.96 737.03C475.88 740.25 474.79 743.47 473.1 748.44C464.14 735.8 455.73 723.96 447.33 712.12C439.98 701.79 431.94 691.87 425.62 680.95C422.96 676.37 421.5 668.47 423.66 664.15C444.09 623.24 465.41 582.77 486.49 542.18C487.8 539.58 489.12 536.98 490.42 534.38C494.85 526.27 499.29 518.17 503.71 510.05C511.68 495.42 519.64 480.79 527.6 466.16C531.4 460.22 535.21 454.28 539.01 448.35C539.06 447.79 577.99 383.32 578.5 380.37C579.19 380.62 623.36 396.64 640.99 431V431.01Z" fill="url(#paint3_linear_2004_331)"/>
<path d="M641.1 431.23L640.98 431.13C640.98 431.13 640.98 431.05 640.98 431.01C641.02 431.08 641.06 431.16 641.1 431.23Z" fill="#F5A9A7"/>
<path d="M786.12 758.76C696.62 770.84 635.84 746.18 595.97 715.78C547.14 678.54 529.78 632.14 529.78 632.14L531.91 628.42C535.29 621.18 538.45 613.81 542.25 606.78C542.45 606.4 542.66 606.03 542.86 605.65C554.1 584.83 570.13 555.54 581.9 534.21C581.9 534.21 587.76 556.15 602.67 586.94C609.61 599.83 616.29 612.9 623.88 625.36V625.37C625.64 628.26 627.46 631.12 629.33 633.94C630.38 635.51 631.45 637.07 632.53 638.6C632.55 638.65 632.59 638.7 632.63 638.75C642.28 652.46 653.36 665.22 663.91 678.33C664.47 679.02 665.05 679.7 665.65 680.36C679.44 695.31 695.25 709.8 713.32 722.9C714.1 723.47 714.92 724.01 715.75 724.53C726.42 731.15 737.1 737.79 747.78 744.42C748.61 744.94 749.46 745.42 750.32 745.87C756.6 749.16 763.08 752.27 769.8 755.19C774.97 757.43 780.5 758.91 786.11 758.74L786.12 758.76Z" fill="url(#paint4_linear_2004_331)"/>
<defs>
<linearGradient id="paint0_linear_2004_331" x1="428" y1="346.5" x2="618.46" y2="401.36" gradientUnits="userSpaceOnUse">
<stop offset="0.17" stop-color="#E40F10"/>
<stop offset="0.23" stop-color="#E51213"/>
<stop offset="0.29" stop-color="#EA1E1E"/>
<stop offset="0.36" stop-color="#F23230"/>
<stop offset="0.42" stop-color="#FF504B"/>
<stop offset="0.44" stop-color="#FA4541"/>
<stop offset="0.48" stop-color="#F02D2B"/>
<stop offset="0.52" stop-color="#E91D1C"/>
<stop offset="0.57" stop-color="#E51313"/>
<stop offset="0.64" stop-color="#E41011"/>
</linearGradient>
<linearGradient id="paint1_linear_2004_331" x1="722.7" y1="712.38" x2="953.88" y2="712.38" gradientUnits="userSpaceOnUse">
<stop stop-color="#E40F10"/>
<stop offset="0.65" stop-color="#D40C08"/>
<stop offset="1" stop-color="#CA0A04"/>
</linearGradient>
<linearGradient id="paint2_linear_2004_331" x1="467.35" y1="430.6" x2="535.7" y2="498.33" gradientUnits="userSpaceOnUse">
<stop stop-color="#E40F10"/>
<stop offset="0.34" stop-color="#E41112"/>
<stop offset="0.55" stop-color="#E71A1A"/>
<stop offset="0.72" stop-color="#EB2829"/>
<stop offset="0.88" stop-color="#F23D3D"/>
<stop offset="1" stop-color="#F95353"/>
</linearGradient>
<linearGradient id="paint3_linear_2004_331" x1="431.02" y1="720.69" x2="607.14" y2="430.29" gradientUnits="userSpaceOnUse">
<stop stop-color="#E40F10"/>
<stop offset="0.08" stop-color="#E81E1E"/>
<stop offset="0.24" stop-color="#F34645"/>
<stop offset="0.26" stop-color="#F54C4B"/>
<stop offset="0.27" stop-color="#F44B4A"/>
<stop offset="0.4" stop-color="#ED3131"/>
<stop offset="0.54" stop-color="#E81E1F"/>
<stop offset="0.69" stop-color="#E51314"/>
<stop offset="0.85" stop-color="#E41011"/>
<stop offset="0.92" stop-color="#DB0E0C"/>
<stop offset="1" stop-color="#CA0A04"/>
</linearGradient>
<linearGradient id="paint4_linear_2004_331" x1="520.35" y1="573.63" x2="725.51" y2="727.33" gradientUnits="userSpaceOnUse">
<stop offset="0.22" stop-color="#E40F10"/>
<stop offset="0.32" stop-color="#EC2F2F"/>
<stop offset="0.42" stop-color="#F54C4B"/>
<stop offset="0.58" stop-color="#EC2F2F"/>
<stop offset="0.75" stop-color="#E61819"/>
<stop offset="0.85" stop-color="#E41011"/>
</linearGradient>
</defs>
</svg>
